<svg width="1011" height="1229" viewBox="0 0 1011 1229" fill="none" xmlns="http://www.w3.org/2000/svg">
<path opacity="0.4" d="M504.853 402.808C507.149 402.188 509.548 401.66 511.821 400.913C554.102 386.858 596.543 373.251 638.571 358.426C655.791 352.386 673.16 351.663 690.885 350.997C707.026 350.399 723.121 348.861 739.239 347.758C741.52 347.424 743.834 347.377 746.127 347.621C747.987 347.977 751.212 349.424 751.178 350.262C750.857 357.324 757.974 363.284 753.945 370.931C753.061 372.596 753.463 376.604 754.691 377.431C759.352 380.588 758.261 384.619 757.343 388.672C756.08 394.253 754.048 399.352 754.496 405.644C754.863 410.858 751.706 417.311 748.17 421.652C735.301 437.464 721.847 452.828 708.197 467.986C694.548 483.143 680.106 498.163 666.054 513.24C664.803 514.595 663.758 516.1 661.692 518.603C665.136 518.603 667.237 518.672 669.361 518.603C678.774 518.224 681.851 520.67 683.745 530.086C685.582 539.203 688.107 548.252 689.095 557.461C689.818 564.19 688.922 571.241 688.096 577.993C686.741 589.143 684.847 600.224 683.194 611.202C693.422 611.202 703.628 611.535 713.799 611.122C728.092 610.547 742.35 609.388 756.631 608.572C760.451 608.284 764.287 608.261 768.111 608.503C776.147 609.146 779.958 612.695 781.887 620.503C783.563 627.393 784.183 634.409 785.055 641.391C785.859 647.672 787.501 653.712 787.018 660.292C785.205 685.003 776.973 707.74 765.344 729.19C736.541 782.299 707.876 835.5 677.913 887.977C618.217 992.633 548.465 1090.62 475.763 1186.54C465.431 1200.21 454.892 1213.75 444.193 1227.69C439.107 1224.02 435.009 1224.6 430.257 1226.69C427.765 1227.84 424.195 1226.52 420.074 1226.26L423.518 1218.64C420.522 1218.09 417.56 1216.79 414.931 1217.28C412.188 1217.88 409.747 1219.43 408.043 1221.66C404.599 1226.51 402.372 1227.81 396.046 1226.26C396.643 1224.95 397.194 1223.71 397.757 1222.48L396.988 1221.49L385.313 1229C386.552 1221.81 392.614 1216.24 384.165 1211.87L380.365 1215.31C379.217 1212.9 378.172 1210.6 376.703 1207.42L381.65 1199.48L380.319 1198.33L368.839 1211.76L364.649 1209.36L377.839 1190.43L376.496 1189.28C374.591 1191.61 372.552 1193.83 370.389 1195.92C368.276 1197.77 366.405 1201.73 362.433 1197.85C365.36 1193.55 368.736 1189.52 371.031 1184.95C373.741 1179.55 374.636 1173.39 378.826 1168.53C381.582 1165.35 383.338 1161.3 385.267 1157.28C380.215 1160.09 376.519 1167.06 367.966 1161.15C483.064 1014.65 586.005 860.292 671.392 694.638C658.305 689.034 644.885 691.537 631.706 691.112C626.368 690.94 621.018 690.871 615.703 690.4C610.388 689.93 606.519 687.403 602.903 683.109C599.93 679.664 594.615 678.068 590.206 675.897C587.359 674.496 584.283 673.601 581.309 672.452C581.505 671.959 581.7 671.465 581.883 670.971L589.334 673.957L589.885 672.889L579.415 658.661C579.794 650.968 580.253 641.563 580.712 632.078C571.207 636.143 562.069 640.931 552.369 643.86C546.801 645.536 540.326 644.193 534.253 644.204H498.516H491.445C491.973 640.621 492.363 637.946 492.822 634.765H482.789C483.718 627.565 483.454 627.37 476.624 628.782C474.018 629.322 471.343 629.621 469.897 629.839C471.217 625.246 472.434 621.02 473.697 616.587L467.865 615.095C469.254 611.948 470.402 608.951 471.848 606.103C475.453 599.03 479.287 592.071 482.731 584.929C483.087 584.205 481.732 581.817 480.711 581.415C477.072 580.222 473.375 579.217 469.633 578.406L555.032 483.878L554.446 482.891C552.694 483.84 550.933 484.789 549.166 485.738V484.82C546.663 484.82 543.942 484.165 541.692 484.912C490.561 501.78 439.291 518.212 388.458 535.931C331.127 555.888 274.164 576.914 217.109 597.675C204.47 602.522 190.829 604.171 177.399 602.475C166.436 601.062 155.094 602.601 143.924 602.635C141.3 602.455 138.694 602.071 136.129 601.487L137.472 594.391C134.706 591.451 125.464 597.33 128.518 587.191C123.34 586.376 117.715 591.382 111.723 585.445L119.013 586.468L115.029 582.839L121.331 575.88L112.48 572.263C114.342 569.957 116.085 567.558 117.704 565.075C120.264 560.677 125.636 557.473 123.375 550.847C123.008 549.791 126.096 547.552 127.599 545.864L132.008 541.018C126.819 539.869 122.617 538.951 118.439 537.917C118.017 537.824 117.621 537.642 117.276 537.383C116.931 537.123 116.647 536.792 116.441 536.413C116.257 535.793 116.877 534.725 117.451 534.116C121.171 530.488 124.879 526.848 128.759 523.391C134.797 517.983 140.388 511.828 147.127 507.533C199.253 474.393 251.518 441.475 303.92 408.779C423.38 333.964 542.863 259.19 662.369 184.458C664.782 183.098 666.867 181.225 668.477 178.97C665.584 179.808 662.645 180.485 659.809 181.507C575.007 211.822 489.78 241.403 405.402 273.004C336.362 298.841 268.102 326.813 199.739 354.442C163.164 369.22 126.968 384.963 90.8981 400.971C82.8622 404.531 75.0329 403.049 67.1576 403.692C58.1918 404.416 49.0997 403.577 40.0535 403.474C34.9449 403.417 29.8364 403.474 23.6372 403.474L29.0213 394.288H14.281C15.4647 393.708 16.5877 393.012 17.6332 392.209C18.3334 391.474 19.3667 390.303 19.1715 389.637C18.8845 388.661 17.6217 387.26 16.8066 387.34C12.9494 387.421 9.1036 387.937 4.95934 388.316C3.70803 380.83 12.0884 380.186 14.9239 374.411L0 375.708L16.6919 356.187H10.1942L26.5761 339.054H1.88273C12.9494 324.391 27.8044 317.684 40.7997 308.762C64.4599 292.537 88.671 277.126 112.63 261.36C114.65 260.028 116.59 258.57 118.565 257.169C118.461 256.583 118.37 256.021 118.266 255.389H96.971C96.7644 253.092 96.6381 251.818 96.5118 250.417C92.115 251.979 88.0511 254.287 83.815 254.677C79.5789 255.067 74.6311 257.605 71.0723 252.771L63.1396 256.285L62.1065 254.838C62.8871 253.092 63.7252 251.393 64.4025 249.579C64.9765 248.224 65.4127 246.8 65.9178 245.41C64.1499 244.962 62.3246 243.963 60.6485 244.182C58.2033 244.48 55.8614 245.663 53.0143 245.456L61.3717 239.003L60.8322 237.923L42.4643 239.072L41.6721 237.682L56.2517 228.347L49.7426 224.316C46.2182 224.396 43.2334 230.632 38.4004 225.326C46.7348 220.366 52.1764 212.971 58.4559 206.426L57.3079 204.979L51.786 205.484L67.6054 191.153C64.9879 187.582 62.3361 186.078 58.4214 188.856C52.6814 192.99 46.9415 192.187 41.2015 187.467C52.5896 181.507 64.1614 175.387 75.7676 169.381C169.008 121.221 266.931 84.6595 366.371 51.7376C409.926 37.315 453.056 21.5488 496.53 6.87354C502.798 4.74918 509.95 5.16256 516.712 4.57693C525.505 3.86498 534.307 3.27932 543.116 2.81999C546.388 2.64775 549.717 3.3252 552.965 3.06109C563.378 2.22283 573.767 1.10904 584.168 0.110019C589.678 -0.406717 590.666 0.787557 589.391 6.0353C589.116 7.1836 588.955 9.17016 589.518 9.4802C595.855 13.3844 592.434 17.346 589.816 21.3536C589.3 22.1459 588.817 22.9612 588.668 23.1794C591.182 27.1984 595.074 30.7467 595.281 34.5016C595.51 38.5092 592.238 42.7005 590.218 47.466C596.337 57.5825 588.955 68.388 578.979 75.5879C560.393 89.0115 541.095 101.39 521.97 114.136C504.623 125.711 487.197 137.183 469.851 148.746C467.597 150.212 465.648 152.099 464.111 154.304C466.935 153.466 469.851 152.754 472.583 151.789C553.134 123.771 633.692 95.7406 714.259 67.6991C760.867 51.508 807.705 35.9486 854.084 19.103C885.275 7.78072 917.224 3.68125 950.148 3.27934C962.145 3.13006 974.13 1.71765 986.115 0.98274C989.348 0.666866 992.605 0.666866 995.838 0.98274C1003.38 1.98176 1004.68 3.62384 1005.38 11.3175C1005.61 12.4041 1006 13.4519 1006.53 14.4293C1007.11 15.8302 1008.62 17.5412 1008.23 18.5517C1003.79 30.0347 1016.56 41.667 1007.93 53.0582C1007.48 53.6925 1007.29 54.4721 1007.4 55.24C1010.84 70.5584 1001.26 80.6404 991.683 89.1952C978.648 100.67 964.738 111.109 950.079 120.418C909.452 146.587 868.308 171.942 827.416 197.71C773.04 231.983 718.701 266.294 664.401 300.644C613.614 332.574 562.762 364.413 511.844 396.159C509.296 397.756 506.965 399.708 504.532 401.499L504.853 402.808ZM497.483 560.998L499.343 562.686C525.111 534.714 550.891 506.749 576.683 478.791L575.535 477.712C548.109 504.203 522.716 532.52 497.483 560.998ZM139.757 258.076L138.896 256.928L86.4439 290.918L87.3623 292.33L139.757 258.076ZM140.262 525.504L141.41 527.123L184.666 496.739L183.725 495.407L140.262 525.504ZM601.135 235.937C601.388 236.327 601.64 236.718 601.882 237.085L626.598 221.307C626.368 220.951 626.139 220.595 625.92 220.239L601.135 235.937ZM398.17 1138.78L399.559 1139.74L412.049 1122.52L410.603 1121.48L398.17 1138.78ZM587.359 661.474C587.876 667.469 588.817 668.364 593.455 667.607C593.053 665.838 592.663 664.081 592.307 662.255L587.359 661.474ZM438.465 1086.94L437.018 1085.9L427.008 1099.99L428.282 1100.92C431.68 1096.26 435.074 1091.61 438.465 1086.94Z" fill="white" fill-opacity="0.3"/>
</svg>
